<svg xmlns="http://www.w3.org/2000/svg" width="740" height="436" viewBox="0 0 740 436">
<rect width="100%" height="100%" fill="white"/>
<text x="370.00" y="22.00" font-size="16" font-family="Arial, sans-serif" text-anchor="middle" font-weight="700" fill="#111827">Schedule and Data Routes, makespan=14</text>
<rect x="70" y="38" width="640" height="340" fill="#f8fafc" stroke="#cbd5e1"/>
<line x1="70.00" y1="38" x2="70.00" y2="378" stroke="#e2e8f0"/>
<line x1="70.00" y1="378" x2="70.00" y2="383" stroke="#334155"/>
<text x="70.00" y="398.00" font-size="11" font-family="Arial, sans-serif" text-anchor="middle" font-weight="400" fill="#111827">0</text>
<line x1="115.71" y1="38" x2="115.71" y2="378" stroke="#e2e8f0"/>
<line x1="115.71" y1="378" x2="115.71" y2="383" stroke="#334155"/>
<text x="115.71" y="398.00" font-size="11" font-family="Arial, sans-serif" text-anchor="middle" font-weight="400" fill="#111827">1</text>
<line x1="161.43" y1="38" x2="161.43" y2="378" stroke="#e2e8f0"/>
<line x1="161.43" y1="378" x2="161.43" y2="383" stroke="#334155"/>
<text x="161.43" y="398.00" font-size="11" font-family="Arial, sans-serif" text-anchor="middle" font-weight="400" fill="#111827">2</text>
<line x1="207.14" y1="38" x2="207.14" y2="378" stroke="#e2e8f0"/>
<line x1="207.14" y1="378" x2="207.14" y2="383" stroke="#334155"/>
<text x="207.14" y="398.00" font-size="11" font-family="Arial, sans-serif" text-anchor="middle" font-weight="400" fill="#111827">3</text>
<line x1="252.86" y1="38" x2="252.86" y2="378" stroke="#e2e8f0"/>
<line x1="252.86" y1="378" x2="252.86" y2="383" stroke="#334155"/>
<text x="252.86" y="398.00" font-size="11" font-family="Arial, sans-serif" text-anchor="middle" font-weight="400" fill="#111827">4</text>
<line x1="298.57" y1="38" x2="298.57" y2="378" stroke="#e2e8f0"/>
<line x1="298.57" y1="378" x2="298.57" y2="383" stroke="#334155"/>
<text x="298.57" y="398.00" font-size="11" font-family="Arial, sans-serif" text-anchor="middle" font-weight="400" fill="#111827">5</text>
<line x1="344.29" y1="38" x2="344.29" y2="378" stroke="#e2e8f0"/>
<line x1="344.29" y1="378" x2="344.29" y2="383" stroke="#334155"/>
<text x="344.29" y="398.00" font-size="11" font-family="Arial, sans-serif" text-anchor="middle" font-weight="400" fill="#111827">6</text>
<line x1="390.00" y1="38" x2="390.00" y2="378" stroke="#e2e8f0"/>
<line x1="390.00" y1="378" x2="390.00" y2="383" stroke="#334155"/>
<text x="390.00" y="398.00" font-size="11" font-family="Arial, sans-serif" text-anchor="middle" font-weight="400" fill="#111827">7</text>
<line x1="435.71" y1="38" x2="435.71" y2="378" stroke="#e2e8f0"/>
<line x1="435.71" y1="378" x2="435.71" y2="383" stroke="#334155"/>
<text x="435.71" y="398.00" font-size="11" font-family="Arial, sans-serif" text-anchor="middle" font-weight="400" fill="#111827">8</text>
<line x1="481.43" y1="38" x2="481.43" y2="378" stroke="#e2e8f0"/>
<line x1="481.43" y1="378" x2="481.43" y2="383" stroke="#334155"/>
<text x="481.43" y="398.00" font-size="11" font-family="Arial, sans-serif" text-anchor="middle" font-weight="400" fill="#111827">9</text>
<line x1="527.14" y1="38" x2="527.14" y2="378" stroke="#e2e8f0"/>
<line x1="527.14" y1="378" x2="527.14" y2="383" stroke="#334155"/>
<text x="527.14" y="398.00" font-size="11" font-family="Arial, sans-serif" text-anchor="middle" font-weight="400" fill="#111827">10</text>
<line x1="572.86" y1="38" x2="572.86" y2="378" stroke="#e2e8f0"/>
<line x1="572.86" y1="378" x2="572.86" y2="383" stroke="#334155"/>
<text x="572.86" y="398.00" font-size="11" font-family="Arial, sans-serif" text-anchor="middle" font-weight="400" fill="#111827">11</text>
<line x1="618.57" y1="38" x2="618.57" y2="378" stroke="#e2e8f0"/>
<line x1="618.57" y1="378" x2="618.57" y2="383" stroke="#334155"/>
<text x="618.57" y="398.00" font-size="11" font-family="Arial, sans-serif" text-anchor="middle" font-weight="400" fill="#111827">12</text>
<line x1="664.29" y1="38" x2="664.29" y2="378" stroke="#e2e8f0"/>
<line x1="664.29" y1="378" x2="664.29" y2="383" stroke="#334155"/>
<text x="664.29" y="398.00" font-size="11" font-family="Arial, sans-serif" text-anchor="middle" font-weight="400" fill="#111827">13</text>
<line x1="710.00" y1="38" x2="710.00" y2="378" stroke="#e2e8f0"/>
<line x1="710.00" y1="378" x2="710.00" y2="383" stroke="#334155"/>
<text x="710.00" y="398.00" font-size="11" font-family="Arial, sans-serif" text-anchor="middle" font-weight="400" fill="#111827">14</text>
<line x1="70" y1="378.00" x2="710" y2="378.00" stroke="#e2e8f0"/>
<line x1="65" y1="378.00" x2="70" y2="378.00" stroke="#334155"/>
<text x="60.00" y="382.00" font-size="11" font-family="Arial, sans-serif" text-anchor="end" font-weight="400" fill="#111827">0</text>
<line x1="70" y1="38.00" x2="710" y2="38.00" stroke="#e2e8f0"/>
<line x1="65" y1="38.00" x2="70" y2="38.00" stroke="#334155"/>
<text x="60.00" y="42.00" font-size="11" font-family="Arial, sans-serif" text-anchor="end" font-weight="400" fill="#111827">1</text>
<text x="390.00" y="422.00" font-size="13" font-family="Arial, sans-serif" text-anchor="middle" font-weight="700" fill="#111827">cycle</text>
<text x="18" y="208.00" font-size="13" font-family="Arial, sans-serif" font-weight="700" fill="#111827" text-anchor="middle" transform="rotate(-90 18 208.00)">pos</text>
<polyline points="115.71,38.00 161.43,378.00 207.14,378.00" fill="none" stroke="#2563eb" stroke-width="2.2" stroke-dasharray="7 5" stroke-linecap="round" stroke-linejoin="round" opacity="0.85"><title>input_read -&gt; bias_add, stream 30</title></polyline>
<polyline points="252.86,378.00 298.57,378.00" fill="none" stroke="#dc2626" stroke-width="2.2" stroke-dasharray="7 5" stroke-linecap="round" stroke-linejoin="round" opacity="0.85"><title>bias_add -&gt; relu, stream 18</title></polyline>
<polyline points="344.29,378.00 390.00,378.00" fill="none" stroke="#16a34a" stroke-width="2.2" stroke-dasharray="7 5" stroke-linecap="round" stroke-linejoin="round" opacity="0.85"><title>relu -&gt; layer_norm, stream 14</title></polyline>
<polyline points="481.43,378.00 527.14,378.00" fill="none" stroke="#9333ea" stroke-width="2.2" stroke-dasharray="7 5" stroke-linecap="round" stroke-linejoin="round" opacity="0.85"><title>layer_norm -&gt; vec_scale, stream 7</title></polyline>
<polyline points="572.86,378.00 618.57,38.00 664.29,38.00" fill="none" stroke="#ea580c" stroke-width="2.2" stroke-dasharray="7 5" stroke-linecap="round" stroke-linejoin="round" opacity="0.85"><title>vec_scale -&gt; output_write, stream 25</title></polyline>
<line x1="161.43" y1="378.00" x2="161.43" y2="356.00" stroke="#94a3b8" stroke-width="0.8"/>
<rect x="152.63" y="352.00" width="17.60" height="15.00" rx="3" fill="#ffffff" opacity="0.86"/>
<text x="161.43" y="364.00" font-size="10" font-family="Arial, sans-serif" text-anchor="middle" font-weight="700" fill="#111827">e1</text>
<line x1="298.57" y1="378.00" x2="298.57" y2="356.00" stroke="#94a3b8" stroke-width="0.8"/>
<rect x="289.77" y="352.00" width="17.60" height="15.00" rx="3" fill="#ffffff" opacity="0.86"/>
<text x="298.57" y="364.00" font-size="10" font-family="Arial, sans-serif" text-anchor="middle" font-weight="700" fill="#111827">e2</text>
<line x1="390.00" y1="378.00" x2="390.00" y2="356.00" stroke="#94a3b8" stroke-width="0.8"/>
<rect x="381.20" y="352.00" width="17.60" height="15.00" rx="3" fill="#ffffff" opacity="0.86"/>
<text x="390.00" y="364.00" font-size="10" font-family="Arial, sans-serif" text-anchor="middle" font-weight="700" fill="#111827">e3</text>
<line x1="527.14" y1="378.00" x2="527.14" y2="356.00" stroke="#94a3b8" stroke-width="0.8"/>
<rect x="518.34" y="352.00" width="17.60" height="15.00" rx="3" fill="#ffffff" opacity="0.86"/>
<text x="527.14" y="364.00" font-size="10" font-family="Arial, sans-serif" text-anchor="middle" font-weight="700" fill="#111827">e4</text>
<line x1="618.57" y1="38.00" x2="618.57" y2="48.00" stroke="#94a3b8" stroke-width="0.8"/>
<rect x="609.77" y="44.00" width="17.60" height="15.00" rx="3" fill="#ffffff" opacity="0.86"/>
<text x="618.57" y="56.00" font-size="10" font-family="Arial, sans-serif" text-anchor="middle" font-weight="700" fill="#111827">e5</text>
<rect x="70.00" y="15.00" width="45.71" height="46.00" rx="4" fill="#2563eb" opacity="0.9"><title>input_read: issue 0, finish 1, pos 1</title></rect>
<rect x="207.14" y="355.00" width="45.71" height="46.00" rx="4" fill="#dc2626" opacity="0.9"><title>bias_add: issue 3, finish 4, pos 0</title></rect>
<rect x="298.57" y="355.00" width="45.71" height="46.00" rx="4" fill="#16a34a" opacity="0.9"><title>relu: issue 5, finish 6, pos 0</title></rect>
<rect x="390.00" y="355.00" width="91.43" height="46.00" rx="4" fill="#9333ea" opacity="0.9"><title>layer_norm: issue 7, finish 9, pos 0</title></rect>
<rect x="527.14" y="355.00" width="45.71" height="46.00" rx="4" fill="#ea580c" opacity="0.9"><title>vec_scale: issue 10, finish 11, pos 0</title></rect>
<rect x="664.29" y="15.00" width="45.71" height="46.00" rx="4" fill="#0891b2" opacity="0.9"><title>output_write: issue 13, finish 14, pos 1</title></rect>
<line x1="230.00" y1="378.00" x2="230.00" y2="331.00" stroke="#94a3b8" stroke-width="0.8"/>
<rect x="215.40" y="329.00" width="29.20" height="15.00" rx="3" fill="#ffffff" opacity="0.86"/>
<text x="230.00" y="341.00" font-size="10" font-family="Arial, sans-serif" text-anchor="middle" font-weight="700" fill="#111827">bias</text>
<line x1="321.43" y1="378.00" x2="321.43" y2="331.00" stroke="#94a3b8" stroke-width="0.8"/>
<rect x="306.83" y="329.00" width="29.20" height="15.00" rx="3" fill="#ffffff" opacity="0.86"/>
<text x="321.43" y="341.00" font-size="10" font-family="Arial, sans-serif" text-anchor="middle" font-weight="700" fill="#111827">relu</text>
<line x1="435.71" y1="378.00" x2="435.71" y2="331.00" stroke="#94a3b8" stroke-width="0.8"/>
<rect x="403.71" y="329.00" width="64.00" height="15.00" rx="3" fill="#ffffff" opacity="0.86"/>
<text x="435.71" y="341.00" font-size="10" font-family="Arial, sans-serif" text-anchor="middle" font-weight="700" fill="#111827">layer_norm</text>
<line x1="550.00" y1="378.00" x2="550.00" y2="327.00" stroke="#94a3b8" stroke-width="0.8"/>
<rect x="520.90" y="325.00" width="58.20" height="15.00" rx="3" fill="#ffffff" opacity="0.86"/>
<text x="550.00" y="337.00" font-size="10" font-family="Arial, sans-serif" text-anchor="middle" font-weight="700" fill="#111827">vec_scale</text>
<line x1="92.86" y1="38.00" x2="92.86" y2="71.00" stroke="#94a3b8" stroke-width="0.8"/>
<rect x="75.36" y="69.00" width="35.00" height="15.00" rx="3" fill="#ffffff" opacity="0.86"/>
<text x="92.86" y="81.00" font-size="10" font-family="Arial, sans-serif" text-anchor="middle" font-weight="700" fill="#111827">input</text>
<line x1="687.14" y1="38.00" x2="651.14" y2="69.00" stroke="#94a3b8" stroke-width="0.8"/>
<rect x="613.34" y="67.00" width="75.60" height="15.00" rx="3" fill="#ffffff" opacity="0.86"/>
<text x="651.14" y="79.00" font-size="10" font-family="Arial, sans-serif" text-anchor="middle" font-weight="700" fill="#111827">output_write</text>
</svg>